<?xml version="1.0" encoding="utf-8"?>
<!-- Generator: Adobe Illustrator 25.1.0, SVG Export Plug-In . SVG Version: 6.00 Build 0)  -->
<svg version="1.1" id="レイヤー_1" xmlns="http://www.w3.org/2000/svg" xmlns:xlink="http://www.w3.org/1999/xlink" x="0px"
	 y="0px" viewBox="0 0 66 66" style="enable-background:new 0 0 66 66;" xml:space="preserve">
<style type="text/css">
	.st0{fill:#007DC9;}
</style>
<g id="レイヤー_2_1_">
	<g id="txt">
		<rect x="3.7" y="3.3" class="st0" width="58.5" height="2.2"/>
		<rect x="3.7" y="18.2" class="st0" width="58.5" height="2.2"/>
		<rect x="3.7" y="33.2" class="st0" width="58.5" height="2.2"/>
		<path class="st0" d="M6.6,48.3l4.7,11.6l4.6-11.6h2.4v14.2h-1.9V57l0.2-6L12,62.5h-1.4L5.9,51L6.1,57v5.5H4.2V48.3H6.6z"/>
		<path class="st0" d="M30.9,55.9h-6.2v5h7.2v1.5h-9V48.3h8.9v1.5h-7.1v4.6h6.2L30.9,55.9z"/>
		<path class="st0" d="M46.4,62.5h-1.9l-7.2-11v11h-1.9V48.3h1.9l7.2,11v-11h1.9V62.5z"/>
		<path class="st0" d="M60.9,48.3V58c0,1.2-0.4,2.4-1.3,3.3c-0.9,0.9-2.1,1.4-3.4,1.4h-0.5c-1.4,0.1-2.7-0.4-3.7-1.2
			c-0.9-0.9-1.5-2.2-1.4-3.5v-9.7h1.8v9.6c0.1,1.9,1.8,3.3,3.7,3.2c0.8,0,1.5-0.4,2.1-0.9c0.6-0.6,0.9-1.5,0.8-2.4v-9.6H60.9z"/>
	</g>
</g>
</svg>
