<?xml version="1.0" encoding="utf-8"?>
<!-- Generator: Adobe Illustrator 25.1.0, SVG Export Plug-In . SVG Version: 6.00 Build 0)  -->
<svg version="1.1" id="レイヤー_1" xmlns="http://www.w3.org/2000/svg" xmlns:xlink="http://www.w3.org/1999/xlink" x="0px"
	 y="0px" viewBox="0 0 66 66" style="enable-background:new 0 0 66 66;" xml:space="preserve">
<style type="text/css">
	.st0{fill:#007DC9;}
</style>
<g id="レイヤー_2_1_">
	<g id="txt">
		
			<rect x="32.2" y="-7.2" transform="matrix(0.7071 -0.7071 0.7071 0.7071 -5.8348 30.0538)" class="st0" width="2.2" height="58.5"/>
		
			<rect x="4.1" y="20.9" transform="matrix(0.7071 -0.7071 0.7071 0.7071 -5.8393 30.0511)" class="st0" width="58.5" height="2.2"/>
		<path class="st0" d="M12.1,60.7c-0.1,1.3-0.7,2.6-1.7,3.5c-1,0.9-2.4,1.3-3.7,1.2c-1.5,0-3-0.6-4-1.8c-1.1-1.4-1.6-3.1-1.6-4.8
			v-1.4c0-1.2,0.2-2.4,0.7-3.5c0.4-0.9,1.1-1.8,2-2.3c0.9-0.5,1.9-0.8,3-0.8c1.3-0.1,2.6,0.4,3.6,1.3c1,0.9,1.6,2.2,1.6,3.5h-1.9
			c-0.1-0.9-0.4-1.8-1.1-2.5c-0.6-0.5-1.5-0.8-2.3-0.8c-1.1,0-2.2,0.4-2.8,1.3c-0.7,1.1-1.1,2.4-1,3.8v1.4c-0.1,1.3,0.3,2.6,1,3.7
			c0.6,0.9,1.6,1.4,2.7,1.4c0.9,0.1,1.7-0.2,2.4-0.7c0.7-0.7,1-1.5,1.1-2.5H12.1z"/>
		<path class="st0" d="M17.7,63.7h6.7v1.5h-8.6V51h1.9V63.7z"/>
		<path class="st0" d="M38.7,58.6c0,1.3-0.2,2.5-0.7,3.7c-0.4,1-1.1,1.8-2,2.4c-0.9,0.6-1.9,0.8-3,0.8c-2.2,0.1-4.1-1.2-5-3.2
			c-0.5-1.1-0.8-2.3-0.7-3.5v-1c0-1.2,0.2-2.5,0.7-3.6c1.3-2.8,4.7-4,7.5-2.7c0.2,0.1,0.4,0.2,0.5,0.3c0.9,0.6,1.6,1.4,2,2.4
			c0.5,1.1,0.7,2.4,0.7,3.6L38.7,58.6z M36.9,57.7c0.1-1.4-0.3-2.7-1-3.9c-1.3-1.6-3.5-1.8-5.1-0.6c-0.2,0.2-0.4,0.3-0.6,0.6
			c-0.7,1.1-1.1,2.4-1,3.8v1c-0.1,1.4,0.3,2.7,1,3.8c1.2,1.6,3.5,1.9,5,0.7c0.2-0.2,0.4-0.4,0.6-0.6c0.7-1.1,1.1-2.5,1-3.8V57.7z"/>
		<path class="st0" d="M47,58.9c-1.3-0.3-2.5-0.9-3.5-1.7c-0.7-0.6-1.1-1.5-1.1-2.5c0-1.1,0.5-2.1,1.3-2.8c1-0.8,2.2-1.2,3.5-1.1
			c0.9,0,1.8,0.2,2.6,0.6c0.7,0.3,1.3,0.9,1.8,1.6c0.4,0.6,0.6,1.4,0.6,2.2h-1.9c0-0.8-0.3-1.5-0.8-2c-0.7-0.5-1.5-0.8-2.3-0.8
			c-0.8,0-1.5,0.2-2.2,0.6c-0.5,0.4-0.8,1-0.8,1.7c0,0.6,0.3,1.1,0.7,1.5c0.8,0.5,1.6,0.9,2.5,1.1c1,0.2,1.9,0.6,2.8,1.1
			c0.6,0.3,1.1,0.8,1.5,1.4c0.3,0.6,0.5,1.2,0.5,1.9c0,1.1-0.5,2.1-1.3,2.8c-1.1,0.7-2.3,1.1-3.6,1c-0.9,0-1.9-0.2-2.7-0.6
			c-0.8-0.3-1.5-0.9-2-1.5c-0.5-0.6-0.7-1.4-0.7-2.2h1.9c0,0.8,0.3,1.5,1,2c0.7,0.5,1.6,0.8,2.5,0.7c0.8,0.1,1.6-0.2,2.3-0.6
			c0.5-0.4,0.8-1,0.8-1.6c0-0.6-0.2-1.2-0.7-1.6C48.8,59.5,47.9,59.1,47,58.9z"/>
		<path class="st0" d="M63.9,58.6h-6.2v5h7.2v1.5h-9V51h8.9v1.6h-7.1v4.6h6.2V58.6z"/>
	</g>
</g>
</svg>
